<?xml version="1.0" encoding="UTF-8"?>
<!-- Created with Inkscape (http://www.inkscape.org/) -->
<svg width="500" height="500" version="1.1" viewBox="0 0 132.29 132.29" xmlns="http://www.w3.org/2000/svg">
<g stroke="#000" stroke-linejoin="round">
<g>
<path d="m23.74 105.51-8.5329 6.9409 13.857-2.2925" fill="#4ab563" stroke-miterlimit="5" stroke-width=".73958"/>
<path d="m25.537 104.08 0.8155-6.8187 4.1588 11.712z" fill="#4ab563" stroke-miterlimit="5" stroke-width=".73958"/>
<path d="m4.6693 92.006 12.045 5.3558 8.8221 6.7149 4.9743 4.8934 9.0521 14.08-10.499-12.895-5.3242-4.6484-8.2311-6.4117-11.098-4.6993z" fill="#d3bc5f" stroke-miterlimit="5.7" stroke-width=".61028"/>
<path d="m30.511 108.97 11.419-3.2508-9.1424 6.7924z" fill="#4ab563" stroke-miterlimit="5" stroke-width=".73958"/>
</g>
<g transform="translate(-4.1344 8.1994)">
<g fill="#fff" stroke-width="1.849">
<path d="m7.9248 8.829 67.646 46.36-25.578 14.46z" stroke-miterlimit="5.7"/>
<path d="m66.628 74.754 50.801-22.13 3.9492 6.4708-46.06 15.301 52.862-17.561 4.1214 7.9741-57.252 12.812 52.055-11.649 0.17958 7.8862-58.417 7.7949"/>
<path d="m16.794 94.991 8.1094-11.657 9.8833-9.123 15.205-4.5615 54.992-68.676-28.027 84.503-13.9 3.0799-8.369-4.1523-16.346 4.4466-7.8549 0.2082z" stroke-miterlimit="5.7"/>
</g>
<g fill="#e8d597">
<path d="m70.426 44.13 18.585 4.6335" stroke-width="1.2092"/>
<g stroke-width="1.1094">
<path d="m24.904 83.334 5.583 5.7248"/>
<path d="m34.787 74.211 3.5546 14.64"/>
<path d="m49.992 69.649 4.6955 14.755"/>
</g>
</g>
<path d="m35.449 78.696-1.4857 0.85783-0.41309 0.64198 0.80183 0.38999 1.4523-0.05223 1.7252-0.63598 0.604-0.54912 0.07777-0.72078-1.7155-0.0336z" stroke-width=".70243"/>
</g>
</g>
</svg>
